<?xml version="1.0" encoding="utf-8"?>
<!-- Generator: Adobe Illustrator 26.5.0, SVG Export Plug-In . SVG Version: 6.00 Build 0)  -->
<svg version="1.1" id="Слой_1" xmlns="http://www.w3.org/2000/svg" xmlns:xlink="http://www.w3.org/1999/xlink" x="0px" y="0px"
	 viewBox="0 0 100 100" style="enable-background:new 0 0 100 100;" xml:space="preserve">
<style type="text/css">
	.st0{fill:#FFFFFF;}
</style>
<g>
	<path class="st0" d="M32.3,32.3L32.2,87H17.5l0.1-54.6H0.3V17.9L48.7,18v14.3H32.3z M3,29.5l16.8-0.1v33l10.3,4.7V29.3l15.4,0.1
		v-9.2H3V29.5z"/>
	<path class="st0" d="M69.4,31.5v18.1l19.1-7.2v13.1L69,63.7c0,4.1,0,8,0.1,11.6c0,3.6,0.1,7.5,0.1,11.7l-14.5,0.1v-69H100v13.5
		L69.4,31.5z M57.2,20.6l0.1,41.2l8.7,5.3l-0.1-4.8l20.2-8.8v-7.6l-19.5,7.7V29h30.7v-8.3L57.2,20.6z"/>
</g>
</svg>
